<?xml version="1.0" encoding="iso-8859-1"?>
<!-- Uploaded to: SVG Repo, www.svgrepo.com, Generator: SVG Repo Mixer Tools -->
<!DOCTYPE svg PUBLIC "-//W3C//DTD SVG 1.1//EN" "http://www.w3.org/Graphics/SVG/1.1/DTD/svg11.dtd">
<svg viewBox="0 0 24 24" height="800px" width="800px" version="1.1" id="Capa_1" xmlns="http://www.w3.org/2000/svg"
  xmlns:xlink="http://www.w3.org/1999/xlink">
  <g>
    <path
      d="M1.998 5.5c0-1.381 1.119-2.5 2.5-2.5h15c1.381 0 2.5 1.119 2.5 2.5v13c0 1.381-1.119 2.5-2.5 2.5h-15c-1.381 0-2.5-1.119-2.5-2.5v-13zm2.5-.5c-.276 0-.5.224-.5.5v2.764l8 3.638 8-3.636V5.5c0-.276-.224-.5-.5-.5h-15zm15.5 5.463l-8 3.636-8-3.638V18.5c0 .276.224.5.5.5h15c.276 0 .5-.224.5-.5v-8.037z">
    </path>
  </g>
</svg>