<?xml version="1.0" encoding="iso-8859-1"?>
<!-- Uploaded to: SVG Repo, www.svgrepo.com, Generator: SVG Repo Mixer Tools -->
<!DOCTYPE svg PUBLIC "-//W3C//DTD SVG 1.1//EN" "http://www.w3.org/Graphics/SVG/1.1/DTD/svg11.dtd">
<svg viewBox="0 0 24 24" height="800px" width="800px" version="1.1" id="Capa_1" xmlns="http://www.w3.org/2000/svg"
  xmlns:xlink="http://www.w3.org/1999/xlink">
  <g>
    <path
      d="M10.25 3.75c-3.59 0-6.5 2.91-6.5 6.5s2.91 6.5 6.5 6.5c1.795 0 3.419-.726 4.596-1.904 1.178-1.177 1.904-2.801 1.904-4.596 0-3.59-2.91-6.5-6.5-6.5zm-8.5 6.5c0-4.694 3.806-8.5 8.5-8.5s8.5 3.806 8.5 8.5c0 1.986-.682 3.815-1.824 5.262l4.781 4.781-1.414 1.414-4.781-4.781c-1.447 1.142-3.276 1.824-5.262 1.824-4.694 0-8.5-3.806-8.5-8.5z">
    </path>
  </g>
</svg>